# xmcd
#
# Track frame offsets:
#	150
#	25189
#	50525
#	71550
#	91783
#	114288
#	141048
#	160901
#	185711
#	206573
#	228678
#	250648
#	279203
#
# Disc length: 4472 seconds
#
# Revision: 1
# Processed by: cddbd v1.4PL0 Copyright (c) Steve Scherf et al.
# Submitted via: audiograbber 1.80
#
DISCID=ad11760d
DTITLE=Santana - Supernatural
DYEAR=1900
DGENRE=
TTITLE0=Da Lei Taleo
TTITLE1=Love Of My Life
TTITLE2=Put Your Lights On
TTITLE3=Africa Bamba
TTITLE4=Smooth
TTITLE5=Do You Like The Way
TTITLE6=Maria Maria
TTITLE7=Migra
TTITLE8=Corazon Espinado
TTITLE9=Wishing It Was
TTITLE10=El Farol
TTITLE11=Primavera
TTITLE12=The Calling
EXTD=
EXTT0=
EXTT1=
EXTT2=
EXTT3=
EXTT4=
EXTT5=
EXTT6=
EXTT7=
EXTT8=
EXTT9=
EXTT10=
EXTT11=
EXTT12=
PLAYORDER=
